HIERARCHY
ROOT Hips
{
  OFFSET -4.35178 90.3298 111.633
  CHANNELS 6 Xposition Yposition Zposition Zrotation Xrotation Yrotation
  JOINT LeftUpLeg
  {
    OFFSET 0.103456 1.85784 10.5485
    CHANNELS 6 Xposition Yposition Zposition Zrotation Xrotation Yrotation
    JOINT LeftLeg
    {
      OFFSET 43.5 -4.2e-05 0
      CHANNELS 6 Xposition Yposition Zposition Zrotation Xrotation Yrotation
      JOINT LeftFoot
      {
        OFFSET 42.3722 1.9e-05 0
        CHANNELS 6 Xposition Yposition Zposition Zrotation Xrotation Yrotation
        JOINT LeftToe
        {
          OFFSET 17.3 0 0
          CHANNELS 6 Xposition Yposition Zposition Zrotation Xrotation Yrotation
          End Site
          {
            OFFSET 0 0 0
          }
        }
      }
    }
  }
  JOINT RightUpLeg
  {
    OFFSET 0.103456 1.85782 -10.5485
    CHANNELS 6 Xposition Yposition Zposition Zrotation Xrotation Yrotation
    JOINT RightLeg
    {
      OFFSET 43.5 -2.7e-05 0
      CHANNELS 6 Xposition Yposition Zposition Zrotation Xrotation Yrotation
      JOINT RightFoot
      {
        OFFSET 42.3723 0 0
        CHANNELS 6 Xposition Yposition Zposition Zrotation Xrotation Yrotation
        JOINT RightToe
        {
          OFFSET 17.3 0 1.7e-05
          CHANNELS 6 Xposition Yposition Zposition Zrotation Xrotation Yrotation
          End Site
          {
            OFFSET 0 0 0
          }
        }
      }
    }
  }
  JOINT Spine
  {
    OFFSET 6.90197 -2.60373 0
    CHANNELS 6 Xposition Yposition Zposition Zrotation Xrotation Yrotation
    JOINT Spine1
    {
      OFFSET 12.5881 0 0
      CHANNELS 6 Xposition Yposition Zposition Zrotation Xrotation Yrotation
      JOINT Spine2
      {
        OFFSET 12.3432 -1.8e-05 0
        CHANNELS 6 Xposition Yposition Zposition Zrotation Xrotation Yrotation
        JOINT Neck
        {
          OFFSET 25.8329 2.3e-05 0
          CHANNELS 6 Xposition Yposition Zposition Zrotation Xrotation Yrotation
          JOINT Head
          {
            OFFSET 11.7666 0 0
            CHANNELS 6 Xposition Yposition Zposition Zrotation Xrotation Yrotation
            End Site
            {
              OFFSET 0 0 0
            }
          }
        }
        JOINT LeftShoulder
        {
          OFFSET 19.7459 -1.48035 6.0001
          CHANNELS 6 Xposition Yposition Zposition Zrotation Xrotation Yrotation
          JOINT LeftArm
          {
            OFFSET 11.2841 1.8e-05 -2e-05
            CHANNELS 6 Xposition Yposition Zposition Zrotation Xrotation Yrotation
            JOINT LeftForeArm
            {
              OFFSET 33 -1.3e-05 1.9e-05
              CHANNELS 6 Xposition Yposition Zposition Zrotation Xrotation Yrotation
              JOINT LeftHand
              {
                OFFSET 25.2 3.2e-05 1.1e-05
                CHANNELS 6 Xposition Yposition Zposition Zrotation Xrotation Yrotation
                End Site
                {
                  OFFSET 0 0 0
                }
              }
            }
          }
        }
        JOINT RightShoulder
        {
          OFFSET 19.7461 -1.48036 -6.00008
          CHANNELS 6 Xposition Yposition Zposition Zrotation Xrotation Yrotation
          JOINT RightArm
          {
            OFFSET 11.2841 0 0
            CHANNELS 6 Xposition Yposition Zposition Zrotation Xrotation Yrotation
            JOINT RightForeArm
            {
              OFFSET 33.0001 1.6e-05 0
              CHANNELS 6 Xposition Yposition Zposition Zrotation Xrotation Yrotation
              JOINT RightHand
              {
                OFFSET 25.1998 0.000123 0.000432
                CHANNELS 6 Xposition Yposition Zposition Zrotation Xrotation Yrotation
                End Site
                {
                  OFFSET 0 0 0
                }
              }
            }
          }
        }
      }
    }
  }
}
MOTION
Frames:	10
Frame Time:	0.0333333
-6.97007 88.0655 85.7311 -102.133 -83.2187 174.586 0.103456 1.85784 10.5485 -28.9075 16.3847 170.94 43.5 -4.2e-05 1e-05 -35.9765 0.113696 -0.953271 42.3722 1.9e-05 -8.88178e-16 74.5491 0.0644217 -13.0395 17.3 1.77636e-15 3e-06 21.4546 -1e-06 0.003093 0.103456 1.85782 -10.5485 18.5058 -8.02416 175.342 43.5 -2.7e-05 4e-06 -32.5913 14.902 11.2467 42.3723 0 1e-05 57.9099 -28.1056 8.61242 17.3 -6e-06 1.7e-05 21.4546 -1.9e-05 -0.003116 6.90197 -2.60373 -3e-06 12.1398 0.298311 0.648134 12.5881 1e-05 8e-06 14.2485 0.909385 1.24807 12.3432 -1.8e-05 -5e-06 13.9101 1.19813 1.20405 25.8329 2.3e-05 7e-06 4.45177 -11.069 -0.734424 11.7666 -8e-06 -6e-06 -39.2483 -21.9294 10.8489 19.7459 -1.48035 6.0001 -168.453 1.80648 -83.1433 11.2841 1.8e-05 -2e-05 6.00324 -5.0461 64.6754 33 -1.3e-05 1.9e-05 -96.4287 -24.1099 -9.46014 25.2 3.2e-05 1.1e-05 -15.5947 40.4373 -5.95698 19.7461 -1.48036 -6.00008 -176.359 -7.38582 93.0942 11.2841 0 -1e-06 -37.2126 8.57263 -43.0993 33.0001 1.6e-05 -1e-06 -114.879 -5.05368 20.7363 25.1998 0.000123 0.000432 -19.4274 6.60042 0.527101 
-3.28321 88.9102 79.4528 -100.617 -80.6381 175.319 0.103456 1.85784 10.5485 -25.2403 13.9169 169.265 43.5 -4.2e-05 1e-05 -25.3838 -1.69911 -0.383092 42.3722 1.9e-05 -1.55431e-15 74.9041 -1.15207 -10.8316 17.3 -3.55271e-15 3e-06 21.4546 -1e-06 0.003093 0.103456 1.85782 -10.5485 20.0333 -8.87865 175.358 43.5 -2.7e-05 4e-06 -31.4671 15.9501 10.0713 42.3723 0 1e-05 53.8183 -35.0602 15.6553 17.3 -6e-06 1.7e-05 21.4546 -1.9e-05 -0.003116 6.90197 -2.60373 -3e-06 11.7197 0.605683 0.309168 12.5881 1e-05 8e-06 13.4065 1.43207 0.511074 12.3432 -1.8e-05 -5e-06 13.0644 1.66144 0.436905 25.8329 2.3e-05 7e-06 4.80344 -11.1265 -0.938352 11.7666 -8e-06 -6e-06 -39.1301 -21.7759 10.8552 19.7459 -1.48035 6.0001 -167.65 2.04134 -83.738 11.2841 1.8e-05 -2e-05 5.43645 -3.66927 62.9458 33 -1.3e-05 1.9e-05 -97.5691 -23.4305 -9.87162 25.2 3.2e-05 1.1e-05 -16.0808 40.5825 -5.67424 19.7461 -1.48036 -6.00008 -178.216 -6.89257 94.3888 11.2841 0 -1e-06 -40.3774 3.41146 -45.1797 33.0001 1.6e-05 -1e-06 -111.431 -5.24263 22.4262 25.1998 0.000123 0.000432 -19.5087 1.56869 2.6946 
0.231916 88.6281 73.3031 -95.2439 -77.8961 179.913 0.103456 1.85784 10.5485 -22.9847 12.0587 168.398 43.5 -4.2e-05 1e-05 -25.0099 -4.03526 1.22768 42.3722 1.9e-05 0 73.2291 3.6279 -3.90041 17.3 0 3e-06 21.4546 -1e-06 0.003093 0.103456 1.85782 -10.5485 19.1068 -9.26772 173.554 43.5 -2.7e-05 4e-06 -38.4981 17.9452 10.6438 42.3723 0 1e-05 55.5265 -38.8938 19.5431 17.3 -6e-06 1.7e-05 21.4546 -1.9e-05 -0.003116 6.90197 -2.60373 -3e-06 11.3785 0.758984 0.0631805 12.5881 1e-05 8e-06 12.7259 1.67546 -0.00630331 12.3432 -1.8e-05 -5e-06 12.3827 1.86203 -0.0941241 25.8329 2.3e-05 7e-06 5.19467 -11.199 -1.14544 11.7666 -8e-06 -6e-06 -38.301 -21.3522 10.532 19.7459 -1.48035 6.0001 -167.6 2.14881 -84.1921 11.2841 1.8e-05 -2e-05 5.37269 -3.36581 61.2677 33 -1.3e-05 1.9e-05 -96.8508 -22.9854 -9.38848 25.2 3.2e-05 1.1e-05 -15.7626 39.7148 -5.13668 19.7461 -1.48036 -6.00008 -179.499 -6.63397 94.8808 11.2841 1.42109e-14 -1e-06 -42.3494 -1.11822 -47.3259 33.0001 1.6e-05 -1e-06 -106.318 -3.3913 24.1727 25.1998 0.000123 0.000432 -18.961 -2.14558 3.56353 
3.64709 87.5418 67.3732 -90.6543 -74.3381 -176.312 0.103456 1.85784 10.5485 -23.3826 8.93947 168.397 43.5 -4.2e-05 1e-05 -33.3136 -6.11439 4.58721 42.3722 1.9e-05 0 75.3697 3.20593 2.35276 17.3 3.55271e-15 3e-06 21.4546 -1e-06 0.003093 0.103456 1.85782 -10.5485 15.6089 -7.61629 171.43 43.5 -2.7e-05 4e-06 -50.5246 19.3617 10.0906 42.3723 0 1e-05 60.2902 -37.9448 18.9474 17.3 -6e-06 1.7e-05 21.4546 -1.9e-05 -0.003116 6.90197 -2.60373 -3e-06 11.0969 0.82234 -0.215593 12.5881 1e-05 8e-06 12.1674 1.73744 -0.569984 12.3432 -1.8e-05 -5e-06 11.8254 1.88052 -0.660346 25.8329 2.3e-05 7e-06 5.39867 -10.5086 -1.61156 11.7666 -8e-06 -6e-06 -36.4529 -20.261 10.6665 19.7459 -1.48035 6.0001 -168.325 2.29782 -84.1623 11.2841 1.8e-05 -2e-05 6.37384 -4.83258 59.7351 33 -1.3e-05 1.9e-05 -94.5235 -21.935 -8.09668 25.2 3.2e-05 1.1e-05 -15.4088 38.1864 -4.54309 19.7461 -1.48036 -6.00008 -179.802 -6.31644 93.9602 11.2841 1.42109e-14 -1e-06 -42.2069 -3.80068 -48.7753 33.0001 1.6e-05 -1e-06 -99.4046 0.0885802 24.3043 25.1998 0.000123 0.000432 -17.5288 -6.31132 4.53287 
6.81517 86.3187 61.7762 -87.258 -70.7309 -173.375 0.103456 1.85784 10.5485 -23.5363 8.23216 168.82 43.5 -4.2e-05 1e-05 -42.9138 -7.57168 7.02738 42.3722 1.9e-05 0 79.2806 0.283432 4.38717 17.3 0 3e-06 21.4546 -1e-06 0.003093 0.103456 1.85782 -10.5485 9.80847 -5.82872 168.708 43.5 -2.7e-05 4e-06 -63.8356 19.9824 9.20566 42.3723 -3.55271e-15 1e-05 64.8004 -36.0962 14.8788 17.3 -6e-06 1.7e-05 21.4546 -1.9e-05 -0.003116 6.90197 -2.60373 -3e-06 10.9196 0.67906 -0.638428 12.5881 1e-05 8e-06 11.8213 1.36328 -1.37925 12.3432 -1.8e-05 -5e-06 11.4864 1.45176 -1.445 25.8329 2.3e-05 7e-06 5.33197 -8.69963 -2.39232 11.7666 -8e-06 -6e-06 -34.3705 -18.6871 11.6744 19.7459 -1.48035 6.0001 -170.323 1.8454 -83.8692 11.2841 1.8e-05 -2e-05 6.57029 -7.6076 57.8958 33 -1.3e-05 1.9e-05 -91.5778 -19.1095 -6.62713 25.2 3.2e-05 1.1e-05 -14.9342 37.8393 -5.16845 19.7461 -1.48036 -6.00008 -179.107 -5.61793 91.2172 11.2841 0 -1e-06 -39.7631 -4.72609 -48.8568 33.0001 1.6e-05 -1e-06 -91.1135 1.39205 21.9912 25.1998 0.000123 0.000432 -16.8041 -11.4509 6.79981 
10.0262 85.3097 56.4623 -85.7599 -67.4332 -172.033 0.103456 1.85784 10.5485 -20.8714 9.3301 171.084 43.5 -4.2e-05 1e-05 -47.9537 -8.36166 5.60933 42.3722 1.9e-05 3.55271e-15 84.6066 -0.498245 4.94082 17.3 0 3e-06 21.4546 -1e-06 0.003093 0.103456 1.85782 -10.5485 2.18323 -4.48944 166.725 43.5 -2.7e-05 4e-06 -75.0872 20.1848 7.70982 42.3723 -3.55271e-15 1e-05 67.5256 -32.7803 7.73921 17.3 -6e-06 1.7e-05 21.4546 -1.9e-05 -0.003116 6.90197 -2.60373 -3e-06 10.7596 0.481472 -1.14725 12.5881 1e-05 8e-06 11.5077 0.866227 -2.34991 12.3432 -1.8e-05 -5e-06 11.1814 0.890867 -2.38314 25.8329 2.3e-05 7e-06 5.23982 -6.33443 -3.27658 11.7666 -8e-06 -6e-06 -32.8315 -17.0679 13.037 19.7459 -1.48035 6.0001 -172.83 1.06556 -84.216 11.2841 1.8e-05 -2e-05 4.99704 -11.1069 56.1641 33 -1.3e-05 1.9e-05 -90.7639 -16.4725 -6.14353 25.2 3.2e-05 1.1e-05 -13.2391 37.8389 -6.48275 19.7461 -1.48036 -6.00008 -177.795 -4.09276 87.7209 11.2841 1.42109e-14 -1e-06 -36.0855 -5.63657 -48.3488 33.0001 1.6e-05 -1e-06 -85.8145 0.0220442 20.1673 25.1998 0.000123 0.000432 -17.3158 -14.8164 8.67408 
13.1427 84.895 51.2777 -85.8397 -64.2148 -172.055 0.103456 1.85784 10.5485 -16.8478 9.81564 173.268 43.5 -4.2e-05 1e-05 -49.5431 -8.35048 3.10334 42.3722 1.9e-05 0 88.456 -1.66046 5.16461 17.3 0 3e-06 21.4546 -1e-06 0.003093 0.103456 1.85782 -10.5485 -6.55966 -3.5318 165.537 43.5 -2.7e-05 4e-06 -82.1938 18.6956 6.46958 42.3723 -3.55271e-15 1e-05 68.8528 -22.3054 -1.3451 17.3 -6e-06 1.7e-05 21.4546 -1.9e-05 -0.003116 6.90197 -2.60373 -3e-06 10.6238 0.293965 -1.546 12.5881 1e-05 8e-06 11.2379 0.413575 -3.10501 12.3432 -1.8e-05 -5e-06 10.9188 0.388233 -3.10877 25.8329 2.3e-05 7e-06 5.33799 -4.42772 -3.9306 11.7666 -8e-06 -6e-06 -33.0294 -15.859 13.6417 19.7459 -1.48035 6.0001 -174.905 0.841757 -84.9772 11.2841 1.8e-05 -2e-05 3.84148 -15.9383 56.276 33 -1.3e-05 1.9e-05 -92.3482 -15.7859 -6.30402 25.2 3.2e-05 1.1e-05 -11.8387 35.855 -6.48954 19.7461 -1.48036 -6.00008 -176.148 -1.66688 84.9078 11.2841 2.84217e-14 -1e-06 -31.3196 -6.66636 -47.3848 33.0001 1.6e-05 -1e-06 -86.4698 -0.87381 20.3695 25.1998 0.000123 0.000432 -16.7843 -14.3033 7.90756 
16.4444 85.1494 46.1039 -85.8995 -61.2012 -172.2 0.103456 1.85784 10.5485 -11.2571 9.94684 174.985 43.5 -4.2e-05 1e-05 -48.0079 -8.2166 0.402109 42.3722 1.9e-05 -3.55271e-15 90.0829 -2.51455 5.79491 17.3 0 3e-06 21.4546 -1e-06 0.003093 0.103456 1.85782 -10.5485 -15.256 -3.59394 165.617 43.5 -2.7e-05 4e-06 -84.2402 15.2901 5.67399 42.3723 3.55271e-15 1e-05 71.5859 -10.1824 -9.88733 17.3 -6e-06 1.7e-05 21.4546 -1.9e-05 -0.003116 6.90197 -2.60373 -3e-06 10.5152 0.0430158 -1.76604 12.5881 1e-05 8e-06 11.0193 -0.128407 -3.49316 12.3432 -1.8e-05 -5e-06 10.7084 -0.179997 -3.46262 25.8329 2.3e-05 7e-06 5.77233 -3.32206 -4.35674 11.7666 -8e-06 -6e-06 -33.871 -14.5785 13.2534 19.7459 -1.48035 6.0001 -176.14 1.66527 -85.9833 11.2841 1.8e-05 -2e-05 3.69464 -21.2381 57.6023 33 -1.3e-05 1.9e-05 -95.5751 -14.9755 -6.25801 25.2 3.2e-05 1.1e-05 -10.9631 33.7375 -6.28503 19.7461 -1.48036 -6.00008 -174.84 1.17507 83.9255 11.2841 -1.42109e-14 -1e-06 -27.076 -7.47794 -46.9003 33.0001 1.6e-05 -1e-06 -89.8962 1.00617 21.1746 25.1998 0.000123 0.000432 -15.5122 -11.729 5.73926 
20.0212 86.1399 40.7594 -85.9492 -57.9256 -172.499 0.103456 1.85784 10.5485 -3.45641 9.87371 176.087 43.5 -4.2e-05 1e-05 -42.1944 -8.63658 -2.4215 42.3722 1.9e-05 0 89.2589 -3.08881 6.33058 17.3 3.55271e-15 3e-06 21.4546 -1e-06 0.003093 0.103456 1.85782 -10.5485 -22.4618 -4.226 166.856 43.5 -2.7e-05 4e-06 -80.9875 11.8756 5.04665 42.3723 -3.55271e-15 1e-05 76.5397 -1.89036 -13.66 17.3 -6e-06 1.7e-05 21.4546 -1.9e-05 -0.003116 6.90197 -2.60373 -3e-06 10.3649 -0.24546 -1.89232 12.5881 1e-05 8e-06 10.7159 -0.725861 -3.6889 12.3432 -1.8e-05 -5e-06 10.4144 -0.79297 -3.62091 25.8329 2.3e-05 7e-06 6.12558 -2.16487 -5.00387 11.7666 -8e-06 -6e-06 -33.842 -12.5715 12.9257 19.7459 -1.48035 6.0001 -176.692 3.11477 -87.249 11.2841 1.8e-05 -2e-05 3.53829 -25.0927 58.4089 33 -1.3e-05 1.9e-05 -99.67 -14.7506 -5.70241 25.2 3.2e-05 1.1e-05 -10.1795 32.3336 -6.6266 19.7461 -1.48036 -6.00008 -173.853 3.60624 83.7007 11.2841 0 -1e-06 -24.1574 -8.66577 -46.5901 33.0001 1.6e-05 -1e-06 -93.5502 2.18206 22.226 25.1998 0.000123 0.000432 -14.505 -9.7104 3.90127 
23.8163 87.6824 35.2261 -86.4857 -54.2287 -173.38 0.103456 1.85784 10.5485 5.37584 8.83329 175.66 43.5 -4.2e-05 1e-05 -33.2493 -10.2425 -3.98669 42.3722 1.9e-05 0 84.8405 -4.23597 7.21283 17.3 0 3e-06 21.4546 -1e-06 0.003093 0.103456 1.85782 -10.5485 -27.6178 -5.21761 169.211 43.5 -2.7e-05 4e-06 -72.8344 10.1206 4.43851 42.3723 1.77636e-15 1e-05 78.3725 2.49905 -13.7604 17.3 -6e-06 1.7e-05 21.4546 -1.9e-05 -0.003116 6.90197 -2.60373 -3e-06 10.1625 -0.4888 -1.87537 12.5881 1e-05 8e-06 10.3098 -1.20494 -3.61063 12.3432 -1.8e-05 -5e-06 10.0162 -1.27239 -3.513 25.8329 2.3e-05 7e-06 6.09305 -0.924485 -5.83609 11.7666 -8e-06 -6e-06 -33.6242 -10.1881 12.6461 19.7459 -1.48035 6.0001 -176.738 4.33386 -88.8683 11.2841 1.8e-05 -2e-05 2.56258 -26.819 58.3229 33 -1.3e-05 1.9e-05 -103.933 -15.438 -4.82379 25.2 3.2e-05 1.1e-05 -9.785 31.0294 -6.50404 19.7461 -1.48036 -6.00008 -172.821 5.28105 83.4426 11.2841 -1.42109e-14 -1e-06 -21.882 -10.1694 -45.8082 33.0001 1.6e-05 -1e-06 -97.1244 1.4673 23.4257 25.1998 0.000123 0.000432 -14.1671 -9.23502 3.22138 
